<?xml version="1.0" encoding="utf-8" ?><svg xmlns="http://www.w3.org/2000/svg" xmlns:xlink="http://www.w3.org/1999/xlink" width="1280" height="832" viewBox="0 0 1280 832"><defs><linearGradient id="gradient_0" gradientUnits="userSpaceOnUse" x1="513.37976" y1="364.5878" x2="757.49377" y2="391.86591"><stop offset="0" stop-color="#0E2978"/><stop offset="1" stop-color="#1AB2F9"/></linearGradient></defs><path fill="url(#gradient_0)" d="M587.424 295.051C588.844 295.12 601.986 284.852 605.737 283.126C626.789 273.441 662.9 274.023 679.638 291.998C682.797 294.305 686.655 298.218 689.24 301.233C690.064 302.543 691.044 303.891 691.96 305.148C692.988 306.886 693.196 307.372 694.533 308.903C695.448 311.349 694.964 311.203 696.713 312.533C706.38 312.24 711.113 311.425 720.657 313.633C726.948 314.736 727.539 315.78 732.885 318.35C745.279 325.475 755.146 334.675 759.066 348.922C762.526 361.5 760.828 376.989 754.211 388.245C747.334 400.027 736.012 408.551 722.788 411.9C720.406 412.499 718.642 412.74 716.218 412.964L715.048 412.231L706.802 408.836C706.643 413.818 706.339 418.497 706.975 423.451C706.788 437.55 706.878 451.652 707.247 465.748C690.431 457.497 686.651 454.458 667.667 449.364C630.533 441.202 603.902 445.722 571.745 465.254L571.963 423.702C561.839 435.639 551.23 449.317 541.633 461.677C525.63 482.287 503.764 455.018 519.822 443.112C535.458 431.52 554.778 416.41 571.717 407.082C550.425 412.163 530.561 405.54 520.199 385.687C504.766 356.118 520.912 320.012 553.901 313.476C561.673 311.936 569.547 312.512 577.367 312.742C578.248 309.929 579.612 307.188 580.86 304.505C583.036 302.005 586.466 298.235 586.982 295.074L587.424 295.051ZM579.276 396.452C566.691 388.751 562.86 384.595 558.287 370.289C581.142 403.156 600.764 392.407 633.485 389.645C618.793 381.127 609.315 367.64 604.964 351.335L604.737 350.467C623.623 377.613 633.886 384.908 665.208 393.529C670.203 394.282 682.769 398.166 687.379 400.232C688.361 400.502 690.947 401.161 691.332 402.147C690.693 403.103 682.894 401.648 681.684 401.396C676.347 400.95 669.808 399.837 664.184 399.296C643.496 397.394 607.688 397.669 589.863 410.937C582.662 416.297 581.183 426.448 580.537 434.989C580.173 440.401 580.047 445.827 580.158 451.25C602.967 441.557 619.847 435.671 645.308 437.007C653.068 437.414 663.569 438.822 670.801 441.454C677.466 442.375 688.942 448.241 695.371 451.338C698.608 433.606 699.904 425.19 700.101 407.513C704.011 407.142 707.925 406.822 711.843 406.553C725.246 402.664 737.467 395.197 744.863 382.953C756.712 363.336 752.891 340.568 732.213 329.039C721.645 323.147 708.703 318.831 696.569 321.999C697.042 327.141 697.424 331.527 697.529 336.692C698.671 342.48 698.17 347.988 697.658 353.788C696.395 349.608 694.822 343.104 694.066 338.75C693.331 337.343 690.352 329.038 689.628 327.114C686.946 319.987 684.727 315.993 680.795 309.509C663.007 284.567 626.717 278.667 601.692 296.603C592.551 303.155 586.827 311.671 582.139 321.733C568.393 319.213 559.553 319.119 547.031 327.273C520.944 344.261 517.914 391.816 553.833 398.334C561.56 399.736 571.453 398.391 579.276 396.452Z"/><path fill="#148FD8" d="M665.208 393.529C670.203 394.282 682.769 398.166 687.379 400.232C685.395 401.319 684.076 401.078 681.684 401.396C676.347 400.95 669.808 399.837 664.184 399.296C666.356 395.47 664.457 395.643 665.208 393.529Z"/><path fill="#148FD8" d="M700.101 407.513C704.011 407.142 707.925 406.822 711.843 406.553C710.938 407.954 711.114 407.545 709.282 408.342L709.749 408.057C710.682 409.354 713.057 409.886 715.048 412.231L706.802 408.836C706.643 413.818 706.339 418.497 706.975 423.451C706.788 437.55 706.878 451.652 707.247 465.748C690.431 457.497 686.651 454.458 667.667 449.364C663.881 445.137 650.693 447.484 647.481 443.775C647.602 441.2 648.249 441.018 649.769 438.59C655.786 438.867 668.001 442.273 670.801 441.454C677.466 442.375 688.942 448.241 695.371 451.338C698.608 433.606 699.904 425.19 700.101 407.513Z"/><path fill="#4FACF7" d="M694.066 338.75C696.21 341.077 695.293 340.89 696.232 342.112C696.295 342.095 696.358 342.077 696.421 342.059L696.484 341.571L696.33 341.61C696.607 341.019 696.838 338.393 697.529 336.692C698.671 342.48 698.17 347.988 697.658 353.788C696.395 349.608 694.822 343.104 694.066 338.75Z"/><defs><linearGradient id="gradient_1" gradientUnits="userSpaceOnUse" x1="730.13293" y1="248.3389" x2="788.23468" y2="246.65604"><stop offset="0" stop-color="#127DC4"/><stop offset="1" stop-color="#1CBAFF"/></linearGradient></defs><path fill="url(#gradient_1)" d="M726.488 224.158C742.996 208.804 764.364 205.939 785.885 206.367C791.489 224.702 789.579 244.514 780.573 261.44C771.208 279.049 749.859 295.719 729.006 287.927C726.12 287.037 723.27 286.029 720.466 284.906C716.692 288.524 699.448 307.24 696.8 308.701L695.851 308.295C694.94 306.145 694.675 305.82 693.54 303.881C692.566 302.413 691.611 301.055 690.477 299.699C693.608 294.887 708.704 281.942 713.613 277.605C704.964 258.917 710.305 236.887 726.488 224.158Z"/><path fill="#1A6FD4" d="M726.488 224.158L727.615 224.51L730.262 222.539C732.191 233.299 734.697 278.279 730.808 287.07L729.006 287.927C726.12 287.037 723.27 286.029 720.466 284.906C716.692 288.524 699.448 307.24 696.8 308.701L695.851 308.295C694.94 306.145 694.675 305.82 693.54 303.881C692.566 302.413 691.611 301.055 690.477 299.699C693.608 294.887 708.704 281.942 713.613 277.605C704.964 258.917 710.305 236.887 726.488 224.158Z"/><defs><linearGradient id="gradient_2" gradientUnits="userSpaceOnUse" x1="656.76471" y1="534.60876" x2="727.20685" y2="542.78131"><stop offset="0" stop-color="#0E64B0"/><stop offset="1" stop-color="#19ADF2"/></linearGradient></defs><path fill="url(#gradient_2)" d="M659.297 500.197C670.801 499.265 690.056 499.299 701.483 500.937C728.882 504.864 736.891 536.405 712.249 552.21C716.982 559.711 721.815 567.148 726.748 574.52C725.425 575.453 724.506 575.17 722.656 575.246L706.551 575.173C701.992 569.44 697.394 562.091 693.657 555.753C687.815 555.272 684.429 555.113 678.589 555.335L678.539 575.127L659.3 575.11C659.806 551.121 659.461 524.216 659.297 500.197ZM675.58 540.414C684.401 540.891 697.138 541.777 704.143 536.55C710.955 527.626 708.679 515.333 696.451 513.173C690.465 512.115 681.764 512.435 675.604 512.643C675.503 521.9 675.495 531.157 675.58 540.414Z"/><defs><linearGradient id="gradient_3" gradientUnits="userSpaceOnUse" x1="329.83777" y1="537.86261" x2="418.20148" y2="553.12738"><stop offset="0" stop-color="#0D519E"/><stop offset="1" stop-color="#169BE2"/></linearGradient></defs><path fill="url(#gradient_3)" d="M350.729 523.176C364.127 514.228 376.993 513.006 388.728 524.917C398.529 515.881 409.034 514.656 421.467 518.703C426.924 521.739 432.725 526.258 433.709 532.642C435.558 544.637 434.589 562.71 434.513 575.062L415.499 575.129C415.46 570.002 415.033 553.465 415.624 549.118C415.402 545.633 415.155 542.15 414.884 538.668C410.793 532.442 401.541 528.622 396.691 535.31C390.516 543.825 392.562 564.611 393.136 575.204L373.853 575.076C373.905 569.039 375.721 538.352 370.701 535.123C346.366 519.474 351.282 562.484 351.351 575.044L332.354 575.019C332.292 557.471 332.976 534.595 331.884 517.573C337.609 517.588 344.266 516.367 349.078 518.145C350.889 520.054 350.354 519.999 350.729 523.176Z"/><path fill="#148FD8" d="M421.467 518.703C426.924 521.739 432.725 526.258 433.709 532.642C435.558 544.637 434.589 562.71 434.513 575.062L415.499 575.129C415.46 570.002 415.033 553.465 415.624 549.118C416.735 550.22 416.555 558.574 416.689 561.238C416.938 553.959 417.902 553.204 419.491 546.562C420.608 541.895 419.407 533.749 420.356 528.521C420.805 526.05 421.819 520.906 421.467 518.703Z"/><defs><linearGradient id="gradient_4" gradientUnits="userSpaceOnUse" x1="447.43341" y1="553.84998" x2="512.75012" y2="559.80414"><stop offset="0" stop-color="#106AB5"/><stop offset="1" stop-color="#179EE5"/></linearGradient></defs><path fill="url(#gradient_4)" d="M483.025 516.538C522.66 512.222 526.989 573.44 489.052 576.006C480.966 576.554 474.994 575.312 468.777 569.992L469.088 581.212C469.152 586.231 469.104 591.252 468.943 596.269L450.084 596.077C449.462 570.543 450.052 543.517 449.823 517.779C456.399 517.351 466.079 515.114 469.15 521.942C475.15 518.487 476.128 517.421 483.025 516.538ZM484.324 561.08C500.928 557.619 499.853 530.701 480.374 530.698C475.79 532.439 472.273 534.364 469.897 539.109C466.515 545.866 468.75 556.428 475.962 559.763C478.202 560.799 481.765 560.891 484.324 561.08Z"/><path fill="#4FACF7" d="M922.544 519.48L923.84 521.795C925.087 521.731 924.667 522.039 925.586 521.3C933.459 514.978 946.735 515.09 955.302 519.697C973.334 529.394 975.255 558.401 959.177 570.72C949.258 578.32 934.144 578.31 924.144 570.894C923.847 579.372 923.715 587.855 923.747 596.338L905.606 596.33C905.343 579.214 905.232 562.095 905.272 544.977C905.254 539.506 905.493 524.282 904.572 519.801L905.031 518.188C908.019 516.541 918.605 517.035 921.945 518.08L922.544 519.48ZM939.645 561.081C957.42 553.917 953.432 531.683 935.423 531.428C931.809 532.263 926.841 533.945 925.579 537.58C920.472 552.291 924.794 560.599 939.645 561.081Z"/><path fill="#0D3B8C" d="M506.777 201.527C515.543 205.73 531.897 220.056 539.892 226.859C549.809 235.045 563.182 244.883 571.201 254.817C576.918 261.9 575.462 272.931 574.792 281.534C577.956 284.519 586.612 291.747 587.424 295.051L586.982 295.074C586.466 298.235 583.036 302.005 580.86 304.505L580.087 304.066C577.242 301.938 569.694 293.213 566.293 289.791C554.479 292.127 541.519 292.09 532.862 282.877C519.316 268.46 491.559 240.877 482.538 224.281C492.547 229.381 511.62 250.35 520.252 258.856C524.37 262.914 528.699 268.395 533.863 271.412C535.716 271.253 535.647 271.325 537.136 270.261C538.355 265.348 529.911 259.4 526.764 255.59C517.073 243.86 498.208 228.637 490.964 215.735C501.483 221.491 540.1 262.548 543.36 262.754C545.199 261.759 545.485 261.631 546.541 259.846C545.555 257.851 538.81 251.847 536.761 249.539C526.163 237.603 507.82 221.732 499.28 208.882C509.807 213.982 547.354 255.001 554.091 254.681L555.221 253.372C555.302 252.008 555.523 250.603 554.419 249.493C545.998 241.029 536.888 232.974 528.999 224.002C524.084 219.808 511.204 206.885 506.777 201.527Z"/><path fill="#F8FBFB" d="M580.087 304.066C581.545 300.004 583.181 297.168 586.982 295.074C586.466 298.235 583.036 302.005 580.86 304.505L580.087 304.066Z"/><defs><linearGradient id="gradient_5" gradientUnits="userSpaceOnUse" x1="222.71844" y1="541.06866" x2="286.43253" y2="533.914"><stop offset="0" stop-color="#0F2C7F"/><stop offset="1" stop-color="#105AA8"/></linearGradient></defs><path fill="url(#gradient_5)" d="M251.571 498.981C263.927 498.328 274.203 498.279 285.409 504.114C284.238 508.552 281.826 514.49 280.121 518.894C270.869 515.152 257.48 510.059 247.666 516.402C245.99 517.486 244.584 519.243 244.226 521.257C246.06 532.361 290.888 528.125 289.629 551.878C288.585 571.585 273.385 575.822 256.68 576.336C244.406 576.192 235.009 574.187 224.224 568.291C226.446 563.396 228.628 558.483 230.77 553.553C239.576 558.918 249.983 562.276 260.313 561.63C270.764 560.978 274.05 551.538 263.062 547.469C249.721 542.53 228.161 544.221 225.769 525.905C223.497 508.505 236.369 501.268 251.571 498.981Z"/><defs><linearGradient id="gradient_6" gradientUnits="userSpaceOnUse" x1="614.37665" y1="549.44415" x2="554.82788" y2="542.10291"><stop offset="0" stop-color="#21B8FE"/><stop offset="1" stop-color="#1083CC"/></linearGradient></defs><path fill="url(#gradient_6)" d="M583.979 516.548C607.68 516.153 615.956 528.997 616.246 551.117C602.759 551.51 585.929 550.739 571.903 550.755C573.019 553.082 574.726 555.748 576.093 557.999C578.537 559.505 581.216 560.593 584.018 561.216C591.591 562.897 596.388 560.82 602.579 556.894L607.084 561.501L612.515 566.947C600.874 578.158 577.76 579.237 565.091 569.615C558.989 565.034 554.993 558.184 554.009 550.616C551.203 529.819 564.831 518.921 583.979 516.548ZM572.409 541.417C578.176 541.581 583.948 541.597 589.716 541.463C593.547 541.507 596.145 541.666 600.009 541.514C596.452 533.265 593.373 529.766 583.781 529.64C576.656 531.59 574.646 534.739 572.409 541.417Z"/><defs><linearGradient id="gradient_7" gradientUnits="userSpaceOnUse" x1="735.12036" y1="539.52167" x2="793.66724" y2="552.12195"><stop offset="0" stop-color="#1594DC"/><stop offset="1" stop-color="#1CB0F9"/></linearGradient></defs><path fill="url(#gradient_7)" d="M760.416 517.096C784.491 514.745 796.022 527.339 796.208 550.703C787.149 550.863 778.087 550.871 769.027 550.727C764.756 550.68 756.092 550.327 752.43 550.85C752.988 562.948 768.573 562.587 777.051 559.773C778.964 559.138 780.502 558.306 782.527 557.705L783.854 558.571C786.702 561.647 788.614 563.902 791.165 567.226C772.935 583.775 738.652 577.219 734.044 551.577C730.583 532.319 742.502 520.296 760.416 517.096ZM751.927 541.711C757.619 541.57 763.053 541.76 768.692 541.561C770.162 541.512 778.481 541.659 779.095 541.137C779.318 540.548 778.667 538.383 778.359 537.826C774.529 530.9 769.798 529.193 762.45 529.639C755.487 532.379 754.044 534.022 752.076 541.154L751.927 541.711Z"/><path fill="#4FACF7" d="M1007.95 516.561C1030.95 517.892 1036.95 529.83 1037.53 550.896C1023.66 551.273 1007.96 550.508 993.776 550.587C996.161 556.6 998.448 560.339 1005.58 561.578C1012.84 562.839 1018.1 560.311 1023.94 556.187C1025.36 558.03 1027.6 560.403 1029.21 562.196L1033.36 567.163C1004.37 591.881 957.246 562.446 982.03 527.081C987.41 519.404 999.213 517.18 1007.95 516.561ZM993.908 541.34C999.991 541.582 1004.73 541.494 1010.81 541.42C1014.64 541.486 1017.35 541.526 1021.19 541.446L1021.01 541.013C1017.39 532.282 1014.79 529.504 1004.97 529.658C997.507 531.309 995.769 534.552 993.908 541.34Z"/><path fill="#4FACF7" d="M832.127 516.537C845.657 515.963 854.632 519.234 862.648 530.477C858.213 533.777 853.608 536.068 848.541 538.175C844.724 534.685 840.943 531.592 835.522 531.435C831.889 531.33 828.368 532.701 825.763 535.235C812.112 548.253 829.105 573.809 848.122 554.452L854.878 557.606C857.398 558.899 859.986 560.351 862.488 561.705C862.238 562.121 861.975 562.529 861.698 562.928C851.536 577.628 828.214 580.219 814.367 570.031C807.938 565.302 803.672 558.194 802.521 550.295C799.762 530.506 813.872 518.923 832.127 516.537Z"/><path fill="#0D3B8C" d="M706.802 408.836L715.048 412.231L716.218 412.964C722.053 416.763 728.878 421.424 734.425 425.669C744.467 433.353 773.69 447.106 761.748 463.01C759.411 466.106 755.925 468.129 752.078 468.623C742.327 469.778 734.614 458.108 729.095 451.276C721.857 442.315 713.413 432.933 706.975 423.451C706.339 418.497 706.643 413.818 706.802 408.836Z"/><path fill="#148FD8" d="M523.84 494.704C530.055 494.484 536.276 494.513 542.488 494.792L542.452 575.107L523.867 575.076L523.84 494.704Z"/><path fill="#4FACF7" d="M871.074 517.31C877.648 516.944 883.376 517.08 889.973 517.232L890 575.279L871.174 575.258C871.575 556.536 871.127 536.156 871.074 517.31Z"/><defs><linearGradient id="gradient_8" gradientUnits="userSpaceOnUse" x1="731.25348" y1="294.63275" x2="767.54065" y2="311.61404"><stop offset="0" stop-color="#0C8ED8"/><stop offset="1" stop-color="#23B5FD"/></linearGradient></defs><path fill="url(#gradient_8)" d="M722.503 311.923C723.655 308.646 728.088 304.207 730.829 302.111C743.844 292.159 762.488 291.245 778.11 291.998C773.317 305.622 764.052 319.863 750.704 326.182C750.068 326.482 749.425 326.766 748.776 327.034C744.424 322.692 742.498 320.912 737.148 317.553L740.832 313.996C744.168 311.976 749.858 308.158 753.218 306.637L752.362 306.216C747.648 308.379 744.656 309.88 740.319 312.906C737.821 314.169 735.255 315.674 732.532 316.191C730.717 315.124 724.483 312.439 722.503 311.923Z"/><path fill="#4FACF7" d="M752.362 306.216C753.493 304.927 766.227 298.332 767.911 298.17L768.321 298.417L768.325 298.464L768.428 298.335C767.511 299.764 755.473 305.807 753.218 306.637L752.362 306.216Z"/><path fill="#0D3B8C" d="M300.897 517.257L316.569 517.2C316.637 535.652 317.097 556.131 316.603 574.436C315.549 575.48 315.307 575.105 313.281 575.183L297.81 575.101C297.8 568.511 297.175 519.749 298.464 517.615L300.897 517.257Z"/><path fill="#0D3B8C" d="M307.351 489.001C322.19 491.041 321.917 507.727 307.877 510.401C305.125 510.032 302.433 509.854 300.127 508.031C297.952 506.304 296.555 503.782 296.245 501.021C295.204 492.483 299.988 489.93 307.351 489.001Z"/><path fill="#4FACF7" d="M876.156 489.536C882.047 489.153 888.847 489.276 890.629 496.298C892.366 503.143 889.906 506.512 884.321 509.82C867.56 511.549 864.17 496.446 876.156 489.536Z"/><path fill="#F8FBFB" fill-opacity="0.011764706" d="M722.503 311.923C724.483 312.439 730.717 315.124 732.532 316.191L732.885 318.35C727.539 315.78 726.948 314.736 720.657 313.633C721.822 313.032 721.731 313.018 722.503 311.923Z"/><path fill="#F8FBFB" fill-opacity="0.14117648" d="M752.362 306.216L753.218 306.637C749.858 308.158 744.168 311.976 740.832 313.996L740.319 312.906C744.656 309.88 747.648 308.379 752.362 306.216Z"/><path fill="#4FACF7" fill-opacity="0.96470588" d="M687.379 400.232C688.361 400.502 690.947 401.161 691.332 402.147C690.693 403.103 682.894 401.648 681.684 401.396C684.076 401.078 685.395 401.319 687.379 400.232Z"/><path fill="#F8FBFB" fill-opacity="0.53333336" d="M690.477 299.699C691.611 301.055 692.566 302.413 693.54 303.881L691.96 305.148C691.044 303.891 690.064 302.543 689.24 301.233C689.688 300.698 690.059 300.261 690.477 299.699Z"/><path fill="#F8FBFB" fill-opacity="0.97647059" d="M693.54 303.881C694.675 305.82 694.94 306.145 695.851 308.295L694.533 308.903C693.196 307.372 692.988 306.886 691.96 305.148L693.54 303.881Z"/></svg>